<svg xmlns="http://www.w3.org/2000/svg" version="1.1" id="Logo" width="140" height="32">
    <path id="icon-Logo" class="path1 fill-color5" d="M37.246 26.1775c-1.462 0-2.632 1.111-2.632 2.574 0 1.521 1.17 2.632 2.632 2.632 1.462 0 2.574-1.17 2.574-2.632.059-1.404-1.053-2.574-2.574-2.574zm0 4.621c-1.053 0-1.872-.877-1.872-1.989s.819-1.93 1.872-1.93c1.053 0 1.872.819 1.872 1.93s-.819 1.989-1.872 1.989zm-4.27-4.504h.702v3.276c0 1.111-.819 1.872-1.989 1.872-1.17 0-1.989-.76-1.989-1.872v-3.276h.702v3.276c0 .76.526 1.228 1.287 1.228.761 0 1.287-.468 1.287-1.228zm21.817 2.515h1.462v2.574h-.643v-.526s-.526.643-1.579.643c-1.345 0-2.515-1.053-2.515-2.632 0-1.462 1.111-2.632 2.574-2.632 1.228 0 1.872.585 1.872.585l-.292.526s-.585-.468-1.404-.468c-1.17 0-1.93.877-1.93 1.93 0 1.17.819 1.989 1.872 1.989.877 0 1.462-.643 1.462-.643v-.76h-.819v-.585zm-10.645-2.515h.702v3.276c0 1.111-.819 1.872-1.989 1.872-1.17 0-1.989-.76-1.989-1.872v-3.276h.702v3.276c0 .76.526 1.228 1.287 1.228.761 0 1.287-.468 1.287-1.228zm7.428-13.044l-.234.234c-.117.117-3.1 3.1-4.153 6.083h-5.206c1.17-4.445 6.902-9.008 6.96-9.066l.292-.234-.292-.234c-.059-.059-5.03-4.211-6.902-8.891h5.264c1.228 3.685 3.86 5.849 3.977 5.908l.175.175.175-.175c.117-.117 2.808-2.281 4.094-5.908h5.264c-1.989 4.679-6.96 8.832-7.019 8.891l-.292.234.292.234c.059.059 5.791 4.562 7.077 9.066h-5.206c-.994-2.925-4.094-5.966-4.211-6.083l-.059-.234zm-2.515 16.787c0 .76-.585 1.404-1.638 1.404s-1.696-.643-1.696-.643l.409-.526s.526.526 1.287.526c.468 0 .877-.292.877-.76 0-1.111-2.457-.877-2.457-2.398 0-.76.702-1.404 1.638-1.404.936 0 1.462.526 1.462.526l-.351.585s-.468-.409-1.111-.409c-.526 0-.936.351-.936.76.059.936 2.515.643 2.515 2.34zm-26.789-3.743h.702v5.089h-.702zm-6.375 0h.702v5.089h-.702l-2.281-3.276c-.175-.351-.409-.76-.409-.76s.059.468.059.76v3.276h-.702v-5.089h.702l2.281 3.276c.175.292.409.76.409.76s-.059-.468-.059-.76zm16.026-6.376c3.919 0 6.434-1.638 7.311-2.34-.585-.292-2.632-1.287-2.925-1.462-.409.468-1.755.936-3.977.936-2.749 0-3.919-1.17-3.919-5.147v-.292h.292c4.504 0 7.896-.819 10.821-2.691.059-.234.234-.994.234-1.638 0-3.042-2.047-6.551-7.779-6.551-6.083 0-9.066 3.159-9.066 9.592 0 6.726 2.691 9.592 9.008 9.592zm-3.509-10.937c0-2.808.409-5.557 3.685-5.557 1.696 0 2.866.819 2.866 2.925 0 .643-.351 1.345-.351 1.404l-.059.117-.175.117c-1.638.877-2.515 1.345-5.674 1.345h-.292zm29.655 21.758h2.281v.643h-2.983v-5.089h.702v4.445zm-39.014-20.589c0-6.492-3.276-9.651-9.943-9.651H1.859v19.419h7.253c6.668-.058 9.943-3.217 9.943-9.768zM7.182 3.4825h2.106c.468 0 .936.058 1.462.234 1.696.877 2.515 2.574 2.515 6.492 0 4.328-.994 6.083-3.1 6.726l-.877.058H7.182V3.4815zm1.754 22.695c-1.462 0-2.632 1.111-2.632 2.574 0 1.521 1.17 2.632 2.632 2.632 1.462 0 2.574-1.17 2.574-2.632 0-1.404-1.111-2.574-2.574-2.574zm0 4.621c-1.053 0-1.872-.877-1.872-1.989s.819-1.93 1.872-1.93c1.053 0 1.872.819 1.872 1.93s-.877 1.989-1.872 1.989zm18.776-4.504h.702v5.089h-.702l-2.281-3.276c-.175-.292-.409-.76-.409-.76s.058.468.058.76v3.276h-.702v-5.089h.702l2.281 3.276c.175.292.409.76.409.76s-.058-.468-.058-.76zm-22.402 3.86l.409.526s-.702.819-1.989.819c-1.521-.058-2.574-1.228-2.574-2.691 0-1.521 1.111-2.632 2.574-2.632 1.228 0 1.872.643 1.872.643l-.351.585s-.585-.526-1.462-.526c-1.111 0-1.872.877-1.872 1.93 0 1.111.76 1.989 1.872 1.989.936 0 1.521-.643 1.521-.643zm12.049-3.86h4.211v.643h-1.755v4.445h-.702v-4.445h-1.755v-.643zm109.67 0h.702v5.089h-.702l-2.281-3.276c-.175-.292-.409-.76-.409-.76s.058.468.058.76v3.276h-.702v-5.089h.702l2.281 3.276c.175.292.409.76.409.76s-.058-.468-.058-.76zm-5.439 0h.702v5.089h-.702zm-8.247-.117c-1.462 0-2.632 1.111-2.632 2.574 0 1.521 1.17 2.632 2.632 2.632 1.462 0 2.574-1.17 2.574-2.632.058-1.404-1.111-2.574-2.574-2.574zm0 4.621c-1.053 0-1.872-.877-1.872-1.989s.819-1.93 1.872-1.93c1.053 0 1.872.819 1.872 1.93s-.819 1.989-1.872 1.989zm6.083-1.638c.526-.175.936-.76.936-1.404 0-.644-.351-1.17-.877-1.345-.175-.058-.409-.117-.936-.117h-1.579v5.089h.702v-2.047h1.111l1.053 2.047h.819l-1.053-1.989c-.117-.175-.175-.234-.175-.234zm-.702-.468h-.994v-1.813h.819c.409 0 .585.058.702.117.234.117.409.409.409.76-.058.585-.409.936-.936.936zm-12.459-2.398h4.211v.643h-1.755v4.445h-.702v-4.445h-1.755v-.643zm25.736 2.515h1.462v2.574h-.643v-.526s-.526.643-1.579.643c-1.345 0-2.515-1.053-2.515-2.632 0-1.462 1.111-2.632 2.574-2.632 1.228 0 1.872.585 1.872.585l-.351.526s-.585-.468-1.404-.468c-1.17 0-1.93.877-1.93 1.93 0 1.17.819 1.989 1.872 1.989.877 0 1.462-.643 1.462-.643v-.76h-.819v-.585zm6.551-27.023c-.175-.351-.468-.643-.819-.819-.351-.176-.702-.292-1.053-.292s-.702.117-1.053.292-.643.468-.819.819c-.175.351-.292.702-.292 1.111 0 .351.117.76.292 1.053.175.351.468.585.819.819.351.175.702.292 1.053.292s.76-.117 1.053-.292c.351-.175.585-.468.819-.819.175-.351.292-.702.292-1.053 0-.409-.059-.76-.292-1.111zm-.292 1.989c-.175.292-.409.526-.643.643-.292.175-.585.234-.877.234-.292 0-.643-.059-.877-.234-.292-.175-.526-.409-.702-.643-.175-.292-.234-.585-.234-.877 0-.292.059-.643.234-.936.175-.292.409-.526.702-.643.292-.175.585-.234.877-.234.292 0 .585.058.877.234.292.175.526.409.702.643.175.292.234.585.234.936-.059.292-.117.585-.292.877zm-1.17-.643c-.059-.058-.117-.117-.175-.117.175 0 .351-.058.468-.234.117-.117.175-.292.175-.468 0-.117-.059-.234-.117-.351-.058-.117-.175-.175-.292-.234-.117-.058-.292-.058-.585-.058h-.819v2.34h.351v-.936h.234c.117 0 .234 0 .292.058.117.058.234.234.409.526l.234.351h.468l-.292-.409c-.175-.175-.292-.351-.351-.468zm-.527-.351h-.468v-.702h.409c.175 0 .292 0 .351.058.059 0 .117.058.175.117.058.059.059.117.059.175 0 .058-.059.175-.117.234 0 .058-.175.117-.409.117zm-31.76 23.513h.702v5.089h-.702zm23.396-6.785V5.9985c0-1.93-.234-2.515-1.638-2.515-2.457 0-3.451 1.696-3.509 1.755l-.058.059v14.213h-5.206V5.9995c0-1.93-.234-2.515-1.638-2.515-2.457 0-3.451 1.696-3.509 1.755l-.058.059v14.213h-5.147V4.8885c0-1.228-1.228-2.398-2.574-3.1 1.053-.292 3.977-1.17 4.153-1.228.585.234 1.989.877 2.398 1.462l.175.234.234-.175s2.34-1.462 5.381-1.462c2.223 0 3.802.409 4.738 1.287l.175.117.175-.058c1.93-.877 3.685-1.345 5.264-1.345 4.211 0 5.732 1.696 5.732 3.276v15.617h-5.089zm-47.962 10.528c0 .76-.585 1.404-1.638 1.404s-1.696-.643-1.696-.643l.409-.526s.526.526 1.287.526c.468 0 .877-.292.877-.76 0-1.111-2.457-.877-2.457-2.398 0-.76.702-1.404 1.638-1.404.936 0 1.462.526 1.462.526l-.351.585s-.468-.409-1.111-.409c-.526 0-.936.351-.936.76.058.936 2.515.643 2.515 2.34zm-15.968-3.743h.702v3.276c0 1.111-.819 1.872-1.989 1.872-1.17 0-1.989-.76-1.989-1.872v-3.276h.702v3.276c0 .76.526 1.228 1.287 1.228.761 0 1.287-.468 1.287-1.228zm9.475-.117c-1.462 0-2.632 1.111-2.632 2.574 0 1.521 1.17 2.632 2.632 2.632 1.462 0 2.574-1.17 2.574-2.632 0-1.404-1.111-2.574-2.574-2.574zm0 4.621c-1.053 0-1.872-.877-1.872-1.989s.819-1.93 1.872-1.93c1.053 0 1.872.819 1.872 1.93s-.877 1.989-1.872 1.989zm-3.568-.644l.409.526s-.702.819-1.989.819c-1.521 0-2.574-1.17-2.574-2.632 0-1.462 1.111-2.574 2.574-2.574 1.228 0 1.872.643 1.872.643l-.351.526s-.585-.526-1.462-.526c-1.111 0-1.872.877-1.872 1.93 0 1.111.76 1.989 1.872 1.989.877-.058 1.521-.702 1.521-.702zm-.526-19.828c0 4.913 1.345 6.726 4.211 6.726 2.164 0 3.275-.409 3.685-.877.351.175 2.398 1.228 2.983 1.521-.76.643-3.1 2.281-6.785 2.281-6.376 0-9.709-3.334-9.709-9.592 0-6.317 3.334-9.592 9.709-9.592 3.685 0 6.025 1.638 6.785 2.281-.585.292-2.632 1.345-2.983 1.521-.409-.468-1.462-.877-3.626-.877-2.925-.117-4.27 1.638-4.27 6.609zM92.286.6755c-5.791 0-9.3 3.568-9.3 9.592 0 6.024 3.451 9.593 9.3 9.593 5.791 0 9.183-3.568 9.183-9.592.058-5.966-3.392-9.592-9.183-9.592zm0 16.143c-2.515 0-3.626-1.579-3.626-6.492s1.111-6.492 3.626-6.492c2.457 0 3.509 1.521 3.509 6.492.058 4.972-.994 6.492-3.509 6.492zm-10.294 13.921h2.34v.643h-3.041v-5.089h2.925v.643h-2.223v1.579h1.813v.585h-1.813v1.638zm20.705-4.445h.702v5.089h-.702l-2.281-3.276c-.175-.292-.409-.76-.409-.76s.058.468.058.76v3.276h-.702v-5.089h.702l2.281 3.276c.175.292.409.76.409.76s-.058-.468-.058-.76zm-6.96-.117c-1.462 0-2.632 1.111-2.632 2.574 0 1.521 1.17 2.632 2.632 2.632 1.462 0 2.574-1.17 2.574-2.632 0-1.404-1.111-2.574-2.574-2.574zm0 4.621c-1.053 0-1.872-.877-1.872-1.989s.819-1.93 1.872-1.93c1.053 0 1.872.819 1.872 1.93s-.819 1.989-1.872 1.989zm-3.919-4.504l.409 5.089h-.702l-.234-3.217v-.76s-.175.468-.292.76l-.994 2.281h-.643l-.994-2.281c-.117-.292-.292-.76-.292-.76v.76l-.234 3.217h-.702l.409-5.089h.76l1.17 2.749c.117.292.234.702.234.702s.117-.409.234-.702l1.17-2.749h.702z" style="fill:#1a1a1a"/>
</svg>

