<svg aria-hidden="true" fill="none" height="19" viewBox="0 0 84 19" width="84" xmlns="http://www.w3.org/2000/svg"><path clip-rule="evenodd" d="M14.8801 0.5C14.9831 0.519593 15.0452 0.578682 15.12 0.624399C15.2652 0.713137 15.4171 0.787465 15.5583 0.873196C15.6264 0.914663 15.7283 0.928347 15.7565 1.00796C15.7657 1.02133 15.7658 1.03357 15.7669 1.05979C15.7099 1.12313 15.6877 1.21322 15.6417 1.28786C15.5154 1.49239 15.4055 1.71133 15.2766 1.92022C15.0153 2.34338 14.7752 2.7935 14.5149 3.21604C14.3906 3.41777 14.3051 3.62666 14.181 3.82767C13.9297 4.23497 13.7157 4.66943 13.4611 5.08202C12.4285 6.75529 11.5298 8.52922 10.498 10.2031C10.3989 10.3637 10.3357 10.5298 10.2371 10.6903C9.83949 11.3376 9.4788 12.0237 9.07898 12.6703C8.95169 12.8762 8.84923 13.0919 8.72424 13.2923C8.68125 13.3614 8.64442 13.5097 8.56773 13.5411C8.55542 13.5494 8.5502 13.5491 8.526 13.5515C8.32661 13.3375 8.10897 13.1326 7.93128 12.8984C7.80159 12.7275 7.61671 12.5875 7.48264 12.4112L7.347 12.2868C7.17234 12.0573 6.94791 11.8739 6.77315 11.6441L6.53318 11.4056C6.3388 11.1495 6.09131 10.9469 5.89673 10.6903L5.74022 10.5452C5.57725 10.3309 5.37129 10.1587 5.20811 9.94394C5.13382 9.84619 4.96198 9.77061 4.94727 9.62258L5.27071 9.30122C5.40916 9.19786 5.54741 9.08165 5.66719 8.95912H5.72979C6.59307 9.88029 7.43996 10.8191 8.30689 11.7374H8.37993C8.71641 11.1934 9.02546 10.6141 9.36069 10.0683C9.44468 9.93161 9.49549 9.79072 9.57979 9.65368C10.3868 8.34158 11.0986 6.9535 11.9065 5.64182C11.9722 5.53504 12.0081 5.42671 12.0734 5.32045C12.3441 4.88039 12.5957 4.41224 12.8664 3.9728C12.9759 3.79501 13.0496 3.61152 13.1585 3.43374C13.535 2.81942 13.8765 2.17026 14.2541 1.55739C14.3914 1.33451 14.506 1.10209 14.6401 0.883563C14.7228 0.748694 14.7749 0.609678 14.8801 0.5Z" fill="#1a1a1a" fill-rule="evenodd"></path><path clip-rule="evenodd" d="M8.67434 2.05491C9.74629 2.03438 10.76 2.23446 11.5227 2.54214C11.6075 2.57635 11.6795 2.57977 11.7627 2.61471C11.8314 2.64352 11.9126 2.68903 11.9818 2.71837C12.0782 2.75932 12.1895 2.75559 12.1905 2.8946C12.1392 2.95017 12.117 3.02543 12.0757 3.09157C11.9909 3.22716 11.8996 3.37064 11.8149 3.50623C11.7604 3.59341 11.7604 3.71263 11.6166 3.71356C11.5561 3.66847 11.4721 3.66214 11.3975 3.63063C11.1155 3.51141 10.8289 3.42879 10.5002 3.34036C10.2286 3.26728 9.92064 3.23245 9.6238 3.16413C9.47022 3.12878 9.31236 3.16714 9.15429 3.13303C8.90012 3.07819 8.32513 3.09913 8.09006 3.15377L7.75618 3.1745C7.60562 3.21109 7.41834 3.24085 7.27623 3.27817L7.1406 3.28853C6.55183 3.45968 6.00385 3.63446 5.51295 3.88979C5.06629 4.12211 4.67023 4.37142 4.28178 4.65692C4.15919 4.747 4.05809 4.87721 3.93747 4.96792C3.79641 5.07397 3.65817 5.20075 3.55143 5.34111L3.38449 5.49661C3.26983 5.64703 3.13075 5.78159 3.01932 5.93201C2.78383 6.24995 2.5834 6.59381 2.37243 6.93756C2.31379 7.03304 2.28322 7.13318 2.23679 7.23819C2.14237 7.45174 2.03824 7.68593 1.94465 7.91202C1.79931 8.26314 1.73848 8.67272 1.64208 9.06271C1.60097 9.2292 1.62778 9.36946 1.58991 9.53957C1.56163 9.66667 1.58897 9.82496 1.55861 9.9646C1.53305 10.0824 1.54817 10.2537 1.54817 10.3896C1.54817 10.7123 1.56769 11.0428 1.63164 11.3123V11.4263C1.64719 11.4911 1.66701 11.5718 1.68381 11.6336C1.76499 11.931 1.78178 12.2157 1.89248 12.4837C2.02374 12.8013 2.143 13.1214 2.27853 13.427C2.31901 13.5184 2.3837 13.613 2.43503 13.6966C2.51641 13.8292 2.57192 13.961 2.65414 14.0905C2.7951 14.3126 2.95755 14.5226 3.11322 14.7332C3.18803 14.8345 3.29873 14.9142 3.37406 15.0131C3.52785 15.2152 3.71326 15.4099 3.91661 15.5625C4.01969 15.6399 4.10493 15.7546 4.20875 15.8321C4.92627 16.3673 5.61906 16.7587 6.54588 17.0968C6.83447 17.202 7.16146 17.2457 7.46404 17.3249C7.60354 17.3614 7.75503 17.3564 7.88138 17.3871L8.25699 17.4078C8.42748 17.4449 8.66067 17.4285 8.86214 17.4285H9.14385C9.41033 17.3678 9.70476 17.4004 9.96811 17.3352C10.343 17.2423 10.7186 17.1581 11.0532 17.045C13.0272 16.3777 14.5587 14.952 15.3623 13.1264C15.5308 12.7437 15.648 12.3296 15.7692 11.9031C15.8244 11.7088 15.8373 11.5043 15.884 11.3123L15.8944 11.1257C15.9461 10.8965 15.9465 10.6273 15.9466 10.3482C15.9466 10.1905 15.9677 9.98938 15.9361 9.85057L15.9257 9.61214C15.8746 9.39154 15.8891 9.15663 15.8318 8.93831C15.6777 8.35073 15.5516 7.72107 15.2684 7.25893L15.1745 7.04123C14.9994 6.7547 14.8535 6.46029 14.6632 6.19117C14.5881 6.08491 14.4399 5.98259 14.4337 5.81797C14.5043 5.74012 14.5338 5.63013 14.5902 5.53808C14.6594 5.42529 14.7402 5.30742 14.8093 5.19598C14.8643 5.10714 14.8902 4.94034 15.0284 4.93682C15.1284 5.09294 15.2857 5.22065 15.3936 5.37221C15.5916 5.65045 15.7765 5.93968 15.957 6.23264C16.0248 6.34263 16.0634 6.45915 16.1239 6.57473C16.3775 7.05937 16.5635 7.59522 16.75 8.16082C16.8317 8.40879 16.8494 8.68692 16.9169 8.93831C16.9795 9.17125 16.9464 9.43476 17.0004 9.67434V9.95423C17.0358 10.1171 17.037 10.4027 17.0004 10.5659C16.9669 10.7153 17.0084 10.8934 16.9795 11.022V11.136C16.9265 11.3635 16.9333 11.6125 16.8752 11.8409C16.7284 12.4177 16.5898 12.9444 16.3744 13.4374C15.7384 14.8929 14.8402 16.0492 13.6094 16.9102C13.1694 17.2181 12.7011 17.5341 12.18 17.7603C11.8623 17.8981 11.5279 18.0215 11.1888 18.1335C11.0845 18.1679 10.9962 18.1709 10.8863 18.206C10.5727 18.3062 10.2107 18.3434 9.86377 18.4237C9.72991 18.4547 9.59563 18.4387 9.47773 18.4652H9.31079C9.18058 18.4936 8.79798 18.5154 8.66391 18.4859H8.39263C8.23811 18.4859 8.08672 18.4741 7.95442 18.4445H7.82922L7.24493 18.3615C6.99682 18.2976 6.72565 18.2649 6.48328 18.1853C6.05571 18.0449 5.6441 17.9007 5.25211 17.7292C4.71718 17.495 4.23744 17.163 3.7914 16.8376C2.82087 16.1295 2.13361 15.2757 1.49601 14.2356C1.28754 13.8955 1.12342 13.4568 0.963892 13.0746C0.93113 12.996 0.928417 12.9259 0.90129 12.8465C0.808326 12.5742 0.727466 12.2716 0.650883 11.9757C0.609461 11.8158 0.619791 11.6744 0.577847 11.5092C0.566162 11.4632 0.547381 11.3894 0.536113 11.3434L0.515246 11.1257C0.502725 11.0897 0.456191 11.0565 0.44221 11.022C0.39912 10.9155 0.431777 10.7145 0.431777 10.5866V9.58104C0.44461 9.54382 0.490414 9.49489 0.504812 9.45664L0.515246 9.34261C0.549781 9.20287 0.550929 9.05856 0.588281 8.90721C0.676758 8.54873 0.726318 8.18456 0.838688 7.84982C1.11017 7.04133 1.45479 6.2909 1.90292 5.65211C2.04085 5.45546 2.20946 5.27166 2.35156 5.08195C2.52497 4.85036 2.72248 4.65111 2.92541 4.44959L3.12365 4.24226C3.29873 4.1106 3.44866 3.94577 3.62447 3.81723C3.9021 3.61425 4.18538 3.41127 4.48002 3.22633C5.05909 2.86298 5.72695 2.62746 6.42068 2.37627L6.67108 2.32444C6.92034 2.24918 7.20549 2.2129 7.47447 2.14821C7.60656 2.11649 7.75044 2.12374 7.87095 2.09638C8.05176 2.08601 8.23268 2.07564 8.4135 2.06528C8.48445 2.06528 8.62499 2.0856 8.67434 2.05491Z" fill="#1a1a1a" fill-rule="evenodd"></path><path clip-rule="evenodd" d="M54.5466 3.28393H55.4066C55.504 3.28393 55.6754 3.2589 55.7445 3.29919C55.7866 3.3236 55.7886 3.36831 55.7906 3.43652C55.6483 3.6268 55.5835 4.06123 55.4834 4.3063C55.2885 4.78346 55.1458 5.31555 54.9459 5.78645C54.8797 5.9424 54.8732 6.10079 54.8076 6.25949C54.6429 6.65821 54.5123 7.11233 54.3469 7.51075L54.224 7.93801C54.0525 8.35153 53.919 8.81999 53.748 9.23505L53.7019 9.43342C53.2616 10.51 52.9258 11.6707 52.5193 12.7599C52.2598 13.4555 52.0741 14.1656 51.7975 14.8352C51.713 15.0398 51.6601 15.2579 51.5825 15.4456C51.5535 15.5158 51.561 15.6317 51.5057 15.6745C51.4305 15.7327 51.2168 15.705 51.091 15.705C50.7252 15.705 50.2751 15.7564 49.9392 15.6897C49.9272 15.6555 49.9235 15.6069 49.9238 15.5524C50.0436 15.371 50.053 15.1215 50.1389 14.9115C50.397 14.2793 50.5678 13.6126 50.8146 12.9583C51.2575 11.7836 51.6501 10.5518 52.0893 9.37238C52.2352 8.98067 52.3358 8.59797 52.4886 8.22793C52.5143 8.13134 52.5397 8.0346 52.5654 7.93801C52.7674 7.44879 52.9192 6.90236 53.1183 6.41208C53.2075 6.19235 53.2344 5.99352 53.3179 5.77119C53.5131 5.25176 53.708 4.68946 53.9015 4.16897C53.9705 3.98341 54.0276 3.80549 54.0858 3.63489C54.125 3.52029 54.129 3.35549 54.2394 3.31445C54.3087 3.27279 54.4779 3.32635 54.5466 3.28393Z" fill="#1a1a1a" fill-rule="evenodd"></path><path clip-rule="evenodd" d="M34.0894 4.16878C35.244 4.14803 36.1559 4.3757 36.8538 4.80967C37.021 4.91359 37.1468 5.07671 37.2992 5.19116C37.3724 5.24624 37.4597 5.30224 37.5142 5.37427C37.649 5.55265 37.7456 5.72416 37.8674 5.9236C38.0697 6.25457 38.2649 6.68931 38.2667 7.20538C38.2219 7.23346 38.2222 7.24719 38.1438 7.25116C38.0471 7.30716 37.7745 7.2182 37.6217 7.25116C37.4899 7.27954 37.2729 7.23819 37.1456 7.25116C36.7667 7.28992 36.1931 7.30853 35.8402 7.2359C35.7575 7.08819 35.7152 6.90386 35.6252 6.76286C35.4149 6.43311 35.067 6.2735 34.6269 6.16775C34.2674 6.08138 33.6434 6.19415 33.429 6.32034C33.2788 6.40885 33.1576 6.54297 33.0604 6.68656C32.9311 6.87761 32.8911 7.25894 33.0143 7.49531C33.3384 8.11697 34.4478 8.10171 35.2105 8.30405C35.5686 8.39911 35.9788 8.44809 36.3316 8.56346C37.2095 8.85063 37.9285 9.31192 38.2821 10.1199C38.4072 10.4059 38.4373 10.7394 38.5124 11.0812V11.3406C38.553 11.5396 38.502 11.98 38.451 12.1799C38.3248 12.6749 38.1021 13.0495 37.8367 13.4006C37.6994 13.5822 37.4868 13.7248 37.2992 13.8584C36.8461 14.1812 36.3098 14.3795 35.6712 14.5298C35.4727 14.5765 35.2859 14.5668 35.103 14.6061H34.8573C34.5966 14.6606 34.1463 14.6432 33.9051 14.5909C33.6517 14.5359 33.4235 14.5755 33.1833 14.5146C32.2238 14.2716 31.4524 13.9156 30.941 13.2328C30.7612 12.9928 30.5746 12.7352 30.4496 12.4393C30.3849 12.2863 30.3637 12.1401 30.3113 11.9815C30.257 11.8169 30.1564 11.5196 30.2192 11.3559C30.3741 11.2883 30.6867 11.3254 30.8949 11.3254H32.1543C32.3512 11.3254 32.6215 11.2984 32.7686 11.3559C32.8419 11.4855 32.8638 11.6568 32.9375 11.7984C33.1571 12.2203 33.5611 12.4733 34.074 12.6072C34.2161 12.6442 34.3644 12.6377 34.5347 12.6377C35.2642 12.6377 35.6937 12.3977 35.8862 11.8595C35.9563 11.6637 35.9325 11.3826 35.8555 11.2033C35.7066 10.8563 35.2595 10.7072 34.8726 10.5929L34.3965 10.5166C33.3365 10.2354 32.2854 10.1806 31.4939 9.6316C31.0146 9.2991 30.6474 8.84041 30.4496 8.22775C30.3952 8.05914 30.4136 7.91173 30.3728 7.72419C30.3265 7.51209 30.3207 7.11047 30.3728 6.88493C30.4221 6.671 30.4531 6.45706 30.5263 6.2593C30.785 5.56119 31.3091 5.08007 31.9086 4.71812C32.2518 4.5109 32.6927 4.38547 33.1218 4.2756C33.3408 4.21944 33.5541 4.23028 33.7669 4.18404C33.8658 4.16253 34.0161 4.21441 34.0894 4.16878Z" fill="#1a1a1a" fill-rule="evenodd"></path><path clip-rule="evenodd" d="M68.5539 4.16897C70.4005 4.1357 71.5851 4.71052 72.2858 5.81697C72.5108 6.17221 72.7427 6.64814 72.7466 7.20556C72.7242 7.21854 72.7025 7.23318 72.6851 7.25134C72.163 7.25638 71.6408 7.26157 71.1186 7.2666C70.852 7.2666 70.5398 7.28049 70.32 7.23608C70.2552 7.12194 70.2244 6.95745 70.1511 6.83934C69.9204 6.46763 69.5892 6.28101 69.0914 6.16793C68.5632 6.048 67.9838 6.2456 67.6938 6.47312C67.6198 6.53126 67.5764 6.63487 67.5249 6.71727C67.3807 6.94845 67.393 7.36335 67.5403 7.58705C67.8873 8.11456 68.9805 8.11624 69.6904 8.30423C70.0112 8.38923 70.3813 8.42875 70.704 8.53312C71.5663 8.81221 72.2272 9.19797 72.6544 9.90646C72.796 10.1413 72.8693 10.4555 72.9462 10.7457C72.9513 10.8423 72.9565 10.9391 72.9616 11.0356C73.0203 11.3099 73.0126 11.8046 72.9462 12.0733C72.8309 12.5407 72.6643 12.9241 72.4241 13.2635C72.0108 13.8475 71.3089 14.1969 70.5504 14.4385C70.3048 14.5167 70.0689 14.4961 69.7979 14.5605C69.3451 14.6681 68.5774 14.6655 68.1239 14.5605C67.8384 14.4945 67.5851 14.5164 67.3252 14.4385C66.427 14.1687 65.763 13.7341 65.2827 13.0499C65.0504 12.7192 64.9098 12.3803 64.7758 11.9359C64.7267 11.773 64.6605 11.561 64.6991 11.3561C64.9543 11.2928 65.3449 11.3256 65.6512 11.3256H66.6341C66.8409 11.3256 67.0884 11.3164 67.2485 11.3561C67.3342 11.5418 67.3879 11.7653 67.4942 11.9359C67.71 12.2822 68.1008 12.4949 68.5539 12.6073C68.7322 12.6516 69.0403 12.6649 69.2296 12.6226C69.3671 12.5919 69.4712 12.6122 69.5982 12.5768C69.9344 12.4831 70.1568 12.2959 70.3047 12.0122C70.3755 11.8764 70.4546 11.5654 70.3815 11.3408C70.1645 10.6742 69.4936 10.6766 68.7842 10.5016C68.455 10.4204 68.0641 10.3684 67.7399 10.2727L67.4788 10.2422C66.8685 10.079 66.319 9.87258 65.8663 9.55549C65.4141 9.23886 65.1011 8.76338 64.9141 8.18216C64.8663 8.03399 64.8893 7.89101 64.8526 7.72438C64.8044 7.50556 64.8026 7.09158 64.8526 6.86986C64.9022 6.65013 64.9248 6.43772 65.0062 6.24423C65.3101 5.5217 65.8236 5.05935 66.4652 4.67253C66.8366 4.44882 67.3108 4.35788 67.786 4.24527C67.9426 4.20819 68.0987 4.21643 68.2467 4.18423C68.3416 4.16363 68.484 4.21261 68.5539 4.16897Z" fill="#1a1a1a" fill-rule="evenodd"></path><path clip-rule="evenodd" d="M20.1301 4.42839H21.9577C22.1226 4.42839 22.4974 4.37819 22.5566 4.48943C22.6359 4.59503 22.5874 5.24034 22.5874 5.43551V7.34292C22.5874 7.60782 22.5362 8.00349 22.6181 8.21269C22.7953 8.31188 23.3457 8.25847 23.6163 8.25847H25.3518C25.6419 8.25847 25.9956 8.29326 26.2579 8.24321C26.366 8.00959 26.304 7.52053 26.304 7.20558V5.42025C26.304 5.10789 26.2755 4.72137 26.3347 4.45891C26.472 4.39864 26.745 4.42839 26.9336 4.42839H28.239C28.4015 4.42839 28.7591 4.38079 28.838 4.47417C28.9171 4.579 28.8687 4.91959 28.8687 5.08454V13.7518C28.8687 13.8743 28.9004 14.2406 28.8534 14.3164C28.7979 14.4058 28.4407 14.3622 28.3005 14.3622H26.8261C26.6747 14.3622 26.3887 14.4034 26.3347 14.3011C26.2903 14.2374 26.304 14.1026 26.304 13.996V11.4171C26.304 11.1094 26.3417 10.7357 26.2886 10.4558C26.2616 10.4393 26.233 10.4174 26.2118 10.3948H23.7392C23.435 10.3948 22.8672 10.3345 22.6334 10.4253C22.5307 10.6089 22.5874 11.0457 22.5874 11.3103V14.057C22.5874 14.1356 22.6052 14.2627 22.572 14.3164C22.5267 14.3898 22.3048 14.3622 22.1881 14.3622H21.0516C20.7759 14.3622 20.2785 14.4139 20.0687 14.3317C19.9997 14.1734 20.038 13.8563 20.038 13.645V5.06928C20.038 4.94782 20.0059 4.54482 20.0533 4.47417C20.0681 4.4522 20.1103 4.44579 20.1301 4.42839Z" fill="#1a1a1a" fill-rule="evenodd"></path><path clip-rule="evenodd" d="M48.9703 13.9347C48.8832 13.7242 48.8218 13.5064 48.7399 13.3091C48.4788 12.6795 48.2865 12.0198 48.0334 11.4017C47.8857 11.041 47.8151 10.6946 47.6649 10.3335C47.1146 9.01072 46.7059 7.59282 46.1444 6.27458C45.8895 5.67626 45.7646 5.01782 45.4687 4.45872C45.2624 4.37846 44.8706 4.4282 44.6086 4.4282H42.7503C42.5492 4.62077 42.5126 4.95724 42.3971 5.23694C42.1523 5.83023 41.972 6.46181 41.7214 7.06806C41.082 8.61459 40.6096 10.2603 39.9552 11.7984C39.8912 11.9489 39.8793 12.0905 39.817 12.241C39.6249 12.705 39.4548 13.2111 39.2641 13.6753C39.1862 13.8648 39.1726 14.0785 39.0645 14.2399C39.0683 14.2932 39.0698 14.3042 39.0952 14.3315C39.1865 14.4004 39.4697 14.362 39.6173 14.362H40.9995C41.1557 14.362 41.4701 14.4055 41.5678 14.3315C41.6937 14.2468 41.7106 13.9807 41.7674 13.8279C41.9187 13.4219 42.0313 12.8464 42.2435 12.5004C42.5011 12.4457 42.8737 12.4698 43.1804 12.4698H44.8697C45.0668 12.4698 45.6631 12.4221 45.7758 12.5004C45.9286 12.5538 45.9339 12.8359 45.9908 12.9887C46.153 13.4229 46.2684 13.9074 46.4516 14.3315C46.6445 14.3753 46.9331 14.362 47.1734 14.362H48.3867C48.5452 14.362 48.9746 14.3974 49.0624 14.3315C49.0727 14.3264 49.0828 14.3212 49.0931 14.3162C49.087 14.1534 49.0186 14.0515 48.9703 13.9347ZM44.6394 10.5319H43.4568C43.2496 10.5319 43.0266 10.5476 42.9039 10.4709C42.9074 10.3055 42.9718 10.2225 43.0114 10.1047C43.1053 9.82602 43.1845 9.56829 43.2725 9.31117C43.5168 8.59688 43.6866 7.85147 43.979 7.17487H44.0558C44.1917 7.40361 44.239 7.6914 44.3322 7.96836C44.4942 8.44979 44.6602 8.95792 44.839 9.43325C44.9348 9.68792 44.9861 9.94336 45.0847 10.181C45.1122 10.2475 45.1084 10.3123 45.1462 10.3641C45.1425 10.6042 44.8671 10.5319 44.6394 10.5319Z" fill="#1a1a1a" fill-rule="evenodd"></path><path clip-rule="evenodd" d="M57.3596 4.4286H63.2109C63.4121 4.4286 63.6896 4.40052 63.8406 4.45912C63.901 4.59599 63.8713 4.86654 63.8713 5.05423C63.8713 5.4676 63.9285 6.07156 63.856 6.44282C63.641 6.54094 63.1979 6.4886 62.9038 6.4886H60.7998C60.5129 6.4886 60.0766 6.43046 59.8476 6.51912C59.7835 6.62944 59.8015 6.84567 59.8015 7.02268V8.09082C59.8015 8.25471 59.7583 8.52892 59.8783 8.57912C59.9732 8.64901 60.4604 8.60964 60.6308 8.60964H62.6888C62.8932 8.60964 63.4849 8.56386 63.5642 8.67068C63.6287 8.75476 63.5949 9.00608 63.5949 9.14372V10.0898C63.5949 10.2496 63.6096 10.449 63.5642 10.5628C63.3275 10.6666 62.8517 10.6086 62.5352 10.6086H60.769C60.4786 10.6086 60.1257 10.5744 59.8629 10.6239C59.8463 10.6507 59.8242 10.6791 59.8015 10.7002V13.4468C59.8015 13.6331 59.8431 14.2774 59.7401 14.3319C59.6485 14.4007 59.3655 14.3624 59.2179 14.3624H57.8357C57.6961 14.3624 57.3375 14.406 57.2828 14.3166C57.2284 14.2276 57.2675 13.7729 57.2675 13.6299V5.29838C57.2675 5.02554 57.2424 4.68251 57.2982 4.45912C57.3326 4.45011 57.339 4.44767 57.3596 4.4286Z" fill="#1a1a1a" fill-rule="evenodd"></path><path clip-rule="evenodd" d="M83.4861 14.0416C83.376 13.72 83.2608 13.4256 83.1483 13.1261C82.8829 12.42 82.6634 11.716 82.3804 11.0356C82.2381 10.6934 82.1697 10.3558 82.0271 10.0132C81.5272 8.81136 81.1464 7.52363 80.6449 6.32044C80.3889 5.70625 80.255 4.98891 79.9231 4.44355C79.6559 4.39289 79.2967 4.42829 79.0016 4.42829H77.2508C77.239 4.43882 77.2166 4.44843 77.2048 4.45881C77.0897 4.50153 77.0066 4.88698 76.959 5.0234C76.8726 5.27136 76.7525 5.54344 76.6519 5.78636C76.5448 6.04486 76.4966 6.2948 76.3908 6.54933C75.7522 8.08426 75.2694 9.71456 74.64 11.2492C74.4877 11.6209 74.4121 11.9819 74.2561 12.3479C74.0556 12.8177 73.9068 13.3136 73.7185 13.7975C73.6875 13.877 73.5239 14.2371 73.5496 14.2858V14.3316C73.7265 14.3758 74.0008 14.3621 74.2253 14.3621H75.4079C75.5791 14.3621 75.9437 14.4137 76.0529 14.3316C76.1879 14.2373 76.1907 13.949 76.2526 13.7822C76.4052 13.371 76.5239 12.8429 76.744 12.4852C77.5737 12.426 78.483 12.4699 79.3395 12.4699C79.5309 12.4699 80.1578 12.4234 80.261 12.5004C80.3941 12.547 80.4443 12.899 80.4913 13.0498C80.6211 13.4657 80.7636 13.937 80.9367 14.3316C81.1872 14.3877 81.5579 14.3621 81.8582 14.3621H83.5168C83.5342 14.3439 83.5559 14.3293 83.5783 14.3163C83.5706 14.1898 83.5175 14.133 83.4861 14.0416ZM79.6006 10.471C79.5467 10.5732 79.2606 10.532 79.1091 10.532H77.8959C77.7606 10.532 77.5171 10.564 77.4351 10.5015H77.4044C77.3556 10.2381 77.5813 9.79635 77.6655 9.57066C77.8713 9.01965 78.0164 8.44316 78.2184 7.9074C78.3131 7.65578 78.3521 7.38371 78.4795 7.17496C78.5109 7.18106 78.5091 7.17877 78.5255 7.19022C78.633 7.23401 78.72 7.70949 78.7713 7.84637C78.9996 8.45521 79.1873 9.12815 79.4163 9.73852C79.4819 9.91339 79.5233 10.0895 79.5852 10.2573C79.6055 10.3124 79.637 10.4156 79.6006 10.471Z" fill="#1a1a1a" fill-rule="evenodd"></path></svg>