<?xml version="1.0" encoding="utf-8"?>
<!-- Generator: Adobe Illustrator 21.0.0, SVG Export Plug-In . SVG Version: 6.00 Build 0)  -->
<svg version="1.2" baseProfile="tiny" id="Calque_1"
	 xmlns="http://www.w3.org/2000/svg" xmlns:xlink="http://www.w3.org/1999/xlink" x="0px" y="0px" viewBox="0 0 400 96.2"
	 xml:space="preserve">
<g>
	<path fill="#1a1a1a" d="M53.4,19.1c0-6.6-5.4-12-12-12s-12,5.4-12,12c0,8.1,12,14.3,12,14.3S53.4,27.2,53.4,19.1z"/>
	<path fill="#1a1a1a" d="M61.3,33.4c0,0-13.3,5.6-13.3,15c0,7.3,6,13.3,13.3,13.3s13.3-6,13.3-13.3C74.6,39,61.3,33.4,61.3,33.4z"/>
	<path fill="#1a1a1a" d="M81.6,0C73.1,0,66,7.1,66,15.6c0,10.6,15.6,17.9,15.6,17.9s15.6-7.1,15.6-17.9C97.2,6.9,90.3,0,81.6,0z"/>
	<path fill="#1a1a1a" d="M8.3,14.3c-4.6,0-8.3,3.7-8.3,8.3c0,5.8,8.3,10.6,8.3,10.6s8.3-5.2,8.3-10.6C16.6,18.1,12.9,14.3,8.3,14.3z
		"/>
	<path fill="#1a1a1a" d="M24.5,33.4c0,0-9.8,5-9.8,11.6c0,5.4,4.4,9.8,9.8,9.8c5.4,0,9.8-4.4,9.8-9.8C34.5,38.2,24.5,33.4,24.5,33.4
		z"/>
	<path d="M163.9,55.7l10.6-47.6c0.4-2.1-1-4.2-3.3-4.2h-1.9c-1.7,0-2.9,1-3.3,2.7l-8.5,38c0,0.2-0.4,0.2-0.4,0l-8.5-38
		c-0.4-1.5-1.7-2.7-3.3-2.7h-1.5c-1.7,0-2.9,1-3.3,2.7l-8.5,38c0,0.2-0.4,0.2-0.4,0l-8.5-38c-0.4-1.5-1.7-2.7-3.3-2.7h-1.9
		c-2.1,0-3.7,2.1-3.3,4.2L125,55.7c0.4,1.5,1.7,2.7,3.3,2.7h4.2c1.7,0,2.9-1,3.3-2.7l8.5-38.4l8.5,38.4c0.4,1.5,1.7,2.7,3.3,2.7h4.2
		C162,58.4,163.4,57.3,163.9,55.7z"/>
	<path d="M263.8,4.2c-1.2,0-2.5,0.4-3.3,1.5c-1,1-1.5,2.1-1.5,3.3c0,1.2,0.4,2.5,1.5,3.3c0.8,0.8,1.9,1.5,3.3,1.5
		c1.2,0,2.5-0.4,3.3-1.5c1-1,1.5-2.1,1.5-3.3c0-1.2-0.4-2.5-1.5-3.3C266,4.6,265,4.2,263.8,4.2z"/>
	<path d="M264.6,19.5h-1.7c-1.9,0-3.3,1.5-3.3,3.3V55c0,1.9,1.5,3.3,3.3,3.3h1.7c1.9,0,3.3-1.5,3.3-3.3V22.8
		C267.9,21,266.5,19.5,264.6,19.5z"/>
	<path d="M185,4.2c-1.2,0-2.5,0.4-3.3,1.5c-1,1-1.5,2.1-1.5,3.3c0,1.2,0.4,2.5,1.5,3.3c0.8,0.8,2.1,1.5,3.3,1.5
		c1.2,0,2.5-0.4,3.3-1.5c1-1,1.5-2.1,1.5-3.3c0-1.2-0.4-2.5-1.5-3.3C187.3,4.6,186.3,4.2,185,4.2z"/>
	<path d="M185.9,19.5h-1.7c-1.9,0-3.3,1.5-3.3,3.3V55c0,1.9,1.5,3.3,3.3,3.3h1.7c1.9,0,3.3-1.5,3.3-3.3V22.8
		C189.2,21,187.7,19.5,185.9,19.5z"/>
	<path d="M198.5,25.8h2.3V55c0,1.9,1.5,3.3,3.3,3.3h1.7c1.9,0,3.3-1.5,3.3-3.3V25.8h3.3c1.2,0,2.3-1,2.3-2.3v-1.7
		c0-1.2-1-2.3-2.3-2.3h-3.3v-8.9c0-1.9-1.5-3.3-3.3-3.3h-1.7c-1.9,0-3.3,1.5-3.3,3.3v8.9h-2.3c-1.2,0-2.3,1-2.3,2.3v1.7
		C196.3,24.7,197.3,25.8,198.5,25.8z"/>
	<path d="M297.4,33.4V55c0,1.9,1.5,3.3,3.3,3.3h1.7c1.9,0,3.3-1.5,3.3-3.3V30.5c0-6.2-3.7-11-11.2-11c-4.6,0-8.1,1.9-9.8,4.8v-1.5
		c0-1.9-1.5-3.3-3.3-3.3h-1.9c-1.9,0-3.3,1.5-3.3,3.3V55c0,1.9,1.5,3.3,3.3,3.3h1.7c1.9,0,3.3-1.5,3.3-3.3V33.4
		c0-3.5,1.5-8.1,6.4-8.1C296.4,25.3,297.4,29.7,297.4,33.4z"/>
	<path d="M251.1,30.5c0-6.2-3.7-11-11.2-11c-4.6,0-8.1,1.9-9.8,4.8V10.6c0-1.9-1.5-3.3-3.3-3.3h-1.9c-1.9,0-3.3,1.5-3.3,3.3V55
		c0,1.9,1.5,3.3,3.3,3.3h1.7c1.9,0,3.3-1.5,3.3-3.3V33.4c0-3.5,1.5-8.1,6.4-8.1c5.4,0,6.4,4.4,6.4,8.1V55c0,1.9,1.5,3.3,3.3,3.3h1.7
		c1.9,0,3.3-1.5,3.3-3.3V30.5z"/>
	<path d="M339.4,19.5h-1.9c-1.9,0-3.3,1.5-3.3,3.3v1.5c-1.7-2.9-5.2-4.8-9.8-4.8c-7.5,0-11.2,4.8-11.2,11v17.2c0,6.2,3.7,11,11.2,11
		c4.6,0,8.1-1.9,9.8-4.8v5c0,4.4-1.7,8.1-5.8,8.1c-1.9,0-3.1-0.4-4.2-1.2c-1.2-0.8-2.9-1-4.2,0l-0.4,0.4c-1.9,1.2-1.9,4.2,0,5.4
		c2.3,1.5,5.2,2.5,8.3,2.5c8.9,0,14.7-5.6,14.7-16V22.8C342.7,21,341.2,19.5,339.4,19.5z M334.2,44.9c0,3.5-1.5,8.1-6.4,8.1
		c-5.4,0-6.4-4.4-6.4-8.1V33.4c0-3.7,1-8.1,6.4-8.1c5,0,6.4,4.6,6.4,8.1V44.9z"/>
	<path d="M357,30.3c0-2.1,1.9-4.8,6.6-4.8c4.6,0,7.1,2.3,8.7,2.3c2.1,0,3.3-2.9,3.3-4.2c0-2.7-6-4.8-12.3-4.8
		c-10.2,0-13.9,6-13.9,11.6c0,13.5,19.5,8.5,19.5,17c0,2.3-1.5,4.4-6.9,4.4c-7.1,0-8.7-3.7-10.8-3.7c-1.7,0-2.9,2.3-2.9,3.7
		c0,3.1,6,6.4,13.9,6.4c9.1,0,14.3-4.4,14.3-11.2C376.9,32.8,357,37.4,357,30.3z"/>
	<path d="M136.9,75c-0.6-0.6-1.5-1.2-2.5-1.7c-0.8-0.4-2.1-0.6-3.5-0.6h-6.4v22.6h2.9v-8.5h3.1c1.5,0,2.7-0.2,3.7-0.6
		c1-0.4,1.9-1,2.5-1.7c0.8-0.6,1.2-1.5,1.5-2.3c0.2-0.8,0.4-1.7,0.4-2.5c0-0.8-0.2-1.5-0.4-2.5C137.9,76.4,137.5,75.6,136.9,75z
		 M134,83.1c-0.8,0.8-2.1,1.2-3.7,1.2h-3.1v-9.1h3.5c1.5,0,2.7,0.4,3.5,1.2c0.8,0.8,1.2,1.9,1.2,3.3C135.4,81.2,135,82.2,134,83.1z"
		/>
	<path d="M147.7,78.5c-0.8,0-1.7,0-2.3,0.2c-0.8,0.2-1.5,0.2-1.9,0.4c-0.4,0-0.8,0.2-1.2,0.4c-0.4,0.2-0.6,0.2-0.8,0.4l0.8,2.1
		c0.4-0.2,1-0.4,1.9-0.6c0.8-0.2,1.7-0.4,2.9-0.4c1.5,0,2.5,0.2,3.1,0.8c0.6,0.4,1,1.2,1,2.5v1c-0.2,0-0.4,0-0.6,0c-0.2,0-0.6,0-1,0
		c-0.4,0-0.8,0-1.2,0c-0.4,0-0.8,0-1.2,0c-2.3,0-3.9,0.4-5,1.5c-1,0.8-1.7,2.3-1.7,3.9c0,1,0,1.9,0.4,2.5c0.2,0.8,0.6,1.2,1.2,1.7
		c0.6,0.4,1.2,0.6,1.9,0.8c0.6,0.2,1.2,0.2,1.9,0.2c1,0,1.9-0.2,2.9-0.6c1-0.4,1.9-1,2.3-1.7l0.2,1.9v-0.4h2.9v-11
		c0-1.9-0.4-3.1-1.7-4.2C151.2,78.9,149.7,78.5,147.7,78.5z M151,90.1c0,0.6-0.2,1-0.4,1.5c-0.2,0.4-0.6,0.6-1,1
		c-0.4,0.4-0.8,0.6-1.5,0.8c-0.6,0.2-1,0.2-1.7,0.2c-1,0-1.9-0.2-2.5-0.6c-0.6-0.4-0.8-1-0.8-2.1c0-0.4,0-0.8,0.2-1.2
		c0-0.4,0.4-0.8,0.6-1c0.4-0.2,0.8-0.4,1.2-0.6c0.6-0.2,1.2-0.2,1.9-0.2c0.4,0,0.8,0,1.2,0c0.4,0,0.8,0,1.2,0c0.4,0.2,0.8,0.2,1,0.2
		c0.2,0,0.4,0,0.4,0V90.1z"/>
	<path d="M167.2,79.1c-0.4,0-0.8,0-1,0c-0.6,0-1.2,0-1.9,0.2c-0.6,0.2-1,0.4-1.5,0.6c-0.4,0.4-0.6,0.6-1,1c-0.4,0.2-0.6,0.6-0.8,1
		l-0.2-2.7H158v16.4h2.9v-7.3c0-2.1,0.6-3.7,1.5-5c1-1.2,2.3-1.9,3.7-1.9c0.4,0,0.6,0,1,0c0.2,0.2,0.4,0.2,0.6,0.2v-2.5
		C167.8,79.1,167.6,79.1,167.2,79.1z"/>
	<path d="M179.6,93.9c-0.4,0-0.8,0-1.2,0c-0.6,0-1-0.2-1.5-0.2c-0.4,0-0.8-0.2-1-0.4c-0.2-0.2-0.4-0.4-0.6-0.8
		c-0.2-0.4-0.2-1-0.2-1.7v-8.9h4.8v-2.5h-4.8v-5.4l-2.9,0.8v4.6h-3.1v2.3h3.3v9.1c0,1.7,0.4,2.9,1.2,3.7c0.8,0.8,2.3,1.2,4.2,1.2
		c0.6,0,1.2,0,1.7,0s0.8,0,1,0.4l-0.2-2.3C180.3,93.9,180.1,93.9,179.6,93.9z"/>
	<path d="M203.9,81c-0.6-0.6-1.5-1.2-2.5-1.7c-1-0.4-2.1-0.6-3.3-0.6c-1.2,0-2.3,0.2-3.3,0.6c-1,0.4-1.9,1-2.5,1.9s-1,1.7-1.5,2.7
		s-0.6,2.3-0.6,3.5c0,1.2,0.2,2.5,0.6,3.5c0.2,1,0.8,1.9,1.5,2.7c0.6,0.6,1.5,1.2,2.5,1.7c1,0.4,2.1,0.6,3.3,0.6
		c1.2,0,2.3,0,3.3-0.8c1-0.4,1.9-0.8,2.5-1.7c0.6-0.8,1-1.7,1.5-2.7c0.4-1,0.6-2.3,0.6-3.5c0-1.2-0.2-2.5-0.6-3.5
		C205.2,82.7,204.6,81.8,203.9,81z M201.9,91.8c-0.8,1-2.1,1.7-3.7,1.7c-0.8,0-1.7-0.2-2.1-0.4c-0.6-0.4-1-0.6-1.5-1.2
		c-0.4-0.4-0.6-1-0.8-1.9c-0.2-0.8-0.2-1.7-0.2-2.5c0-1.9,0.4-3.3,1.2-4.4c0.8-1,2.1-1.7,3.7-1.7c0.8,0,1.5,0.2,2.1,0.4
		c0.6,0.2,1,0.6,1.5,1.2c0.4,0.4,0.6,1,0.8,1.9c0.2,0.8,0.2,1.7,0.2,2.5C203.1,89.3,202.7,90.8,201.9,91.8z"/>
	<path d="M217,70.6c-1,0-2.1,0-2.9,0.4c-0.6,0.4-1.5,0.8-1.9,1.5c-0.4,0.6-0.8,1.2-1,2.1c-0.2,0.8-0.4,1.7-0.4,2.7v1.9h-3.1v2.5V82
		h2.9V96h2.9V82h5v-2.5h-5v-1.7c0-1.7,0.4-2.9,1-3.5c0.6-0.6,1.7-1,2.9-1c0.4,0,0.8,0,1.2,0s0.6,0,0.8,0l0.4-2.3
		c-0.2,0-0.4-0.2-1-0.2C218.5,70.6,217.9,70.6,217,70.6z"/>
	<polygon points="243.2,90.8 232.6,72.7 229.5,72.7 229.5,95.7 232.4,95.7 232.4,77.5 243.2,95.7 246.1,95.7 246.1,72.7 243.2,72.7 
			"/>
	<path d="M264.2,81c-0.6-0.6-1.5-1.2-2.5-1.7c-1-0.4-2.1-0.6-3.3-0.6c-1.2,0-2.3,0.2-3.3,0.6c-1,0.4-1.9,1-2.5,1.9s-1,1.7-1.5,2.7
		s-0.6,2.3-0.6,3.5c0,1.2,0.2,2.5,0.6,3.5c0.2,1,0.8,1.9,1.5,2.7c0.6,0.6,1.5,1.2,2.5,1.7c1,0.4,2.1,0.6,3.3,0.6
		c1.2,0,2.3,0,3.3-0.8c1-0.4,1.9-0.8,2.5-1.7c0.6-0.8,1-1.7,1.5-2.7c0.4-1,0.6-2.3,0.6-3.5c0-1.2-0.2-2.5-0.6-3.5
		C265.4,82.7,264.8,81.8,264.2,81z M262.1,91.8c-0.8,1-2.1,1.7-3.7,1.7c-0.8,0-1.7-0.2-2.1-0.4c-0.6-0.4-1-0.6-1.5-1.2
		c-0.4-0.4-0.6-1-0.8-1.9c-0.2-0.8-0.2-1.7-0.2-2.5c0-1.9,0.4-3.3,1.2-4.4c0.8-1,2.1-1.7,3.7-1.7c0.8,0,1.5,0.2,2.1,0.4
		c0.6,0.2,1,0.6,1.5,1.2c0.4,0.4,0.6,1,0.8,1.9c0.2,0.8,0.2,1.7,0.2,2.5C263.3,89.3,262.9,90.8,262.1,91.8z"/>
	<polygon points="283.1,79.3 279.8,79.3 272.7,86.6 272.7,71 269.8,71 269.8,95.5 272.7,95.5 272.7,87 280.4,95.7 284.1,95.7 
		276,86.6 	"/>
	<path d="M288.1,71.9c-0.6,0-1,0.2-1.5,0.6c-0.2,0.4-0.4,0.8-0.4,1.5c0,0.6,0,1,0.4,1.5c0.4,0.4,0.8,0.6,1.5,0.6
		c0.6,0,1-0.2,1.5-0.6c0.2-0.4,0.4-0.8,0.4-1.5c0-0.6-0.2-1-0.4-1.5C289.1,72.1,288.7,71.9,288.1,71.9z"/>
	<rect x="286.6" y="79.3" width="2.9" height="16.4"/>
	<path d="M300.5,78.5c-0.8,0-1.7,0-2.3,0.2c-0.8,0.2-1.5,0.2-1.9,0.4c-0.4,0-0.8,0.2-1.2,0.4c-0.4,0.2-0.6,0.2-0.8,0.4l0.8,2.1
		c0.4-0.2,1-0.4,1.9-0.6c0.8-0.2,1.7-0.4,2.9-0.4c1.5,0,2.5,0.2,3.1,0.8c0.6,0.4,1,1.2,1,2.5v1c-0.2,0-0.4,0-0.6,0c-0.2,0-0.6,0-1,0
		c-0.4,0-0.8,0-1.2,0c-0.4,0-0.8,0-1.2,0c-2.3,0-3.9,0.4-5,1.5c-1,0.8-1.7,2.3-1.7,3.9c0,1,0,1.9,0.4,2.5c0.2,0.8,0.6,1.2,1.2,1.7
		c0.6,0.4,1.2,0.6,1.9,0.8s1.2,0.2,1.9,0.2c1,0,1.9-0.2,2.9-0.6c1-0.4,1.9-1,2.3-1.7l0.2,1.9v-0.4h2.9v-11c0-1.9-0.4-3.1-1.7-4.2
		C304,78.9,302.6,78.5,300.5,78.5z M303.8,90.1c0,0.6-0.2,1-0.4,1.5c-0.2,0.4-0.6,0.6-1,1c-0.4,0.4-0.8,0.6-1.5,0.8
		c-0.6,0.2-1,0.2-1.7,0.2c-1,0-1.9-0.2-2.5-0.6c-0.6-0.4-0.8-1-0.8-2.1c0-0.4,0-0.8,0.2-1.2c0-0.4,0.4-0.8,0.6-1
		c0.4-0.2,0.8-0.4,1.2-0.6c0.6-0.2,1.2-0.2,1.9-0.2c0.4,0,0.8,0,1.2,0c0.4,0,0.8,0,1.2,0c0.4,0.2,0.8,0.2,1,0.2c0.2,0,0.4,0,0.4,0
		V90.1z"/>
	<polygon points="380.7,21.2 383.6,21.2 383.6,29.1 385.5,29.1 385.5,21.2 388.4,21.2 388.4,19.7 380.7,19.7 	"/>
	<path d="M399.4,19.5h-2.7l-1.7,4.6c-0.2,0.6-0.4,1.5-0.6,2.3c-0.2-0.8-0.4-1.7-0.6-2.3l-1.7-4.6h-2.7l-0.6,9.3h1.9l0.4-5.6
		c0-1,0-1.9,0-2.7h0.2c0.2,0.8,0.4,2.1,0.6,2.7l1.7,5.4h1.9l1.7-5.2c0.4-0.8,0.6-1.9,0.8-2.7h0.2c0,1,0,2.1,0,2.7l0.4,5.6v-0.2h1.5
		L399.4,19.5z"/>
</g>
<g>
</g>
<g>
</g>
<g>
</g>
<g>
</g>
<g>
</g>
<g>
</g>
<g>
</g>
<g>
</g>
<g>
</g>
<g>
</g>
<g>
</g>
<g>
</g>
<g>
</g>
<g>
</g>
<g>
</g>
</svg>
